<?xml version="1.0" encoding="UTF-8" ?>
<!DOCTYPE svg PUBLIC "-//W3C//DTD SVG 1.1//EN" "http://www.w3.org/Graphics/SVG/1.1/DTD/svg11.dtd">
<svg width="600pt" height="600pt" viewBox="0 0 600 600" version="1.1" xmlns="http://www.w3.org/2000/svg">
<path fill="#ffffff" d=" M 0.00 0.00 L 600.00 0.00 L 600.00 600.00 L 0.00 600.00 L 0.00 0.00 Z" />
<path fill="#d0d1d3" d=" M 287.32 135.50 C 298.72 132.41 311.58 139.02 315.74 150.04 C 318.77 157.51 317.72 166.47 312.99 173.01 C 308.32 179.68 300.11 183.70 291.97 183.16 C 284.53 182.88 277.42 178.82 273.24 172.68 C 268.68 166.14 267.72 157.29 270.77 149.93 C 273.58 142.85 279.93 137.32 287.32 135.50 Z" />
<path fill="#ffffff" d=" M 291.97 144.34 C 292.54 144.19 293.68 143.90 294.25 143.76 C 294.39 148.39 294.37 153.03 294.34 157.67 C 298.78 157.78 303.25 157.39 307.68 157.89 C 307.82 158.44 308.10 159.53 308.25 160.08 C 303.59 160.20 298.93 160.20 294.27 160.20 C 294.30 164.86 294.39 169.51 294.23 174.17 C 293.69 174.04 292.61 173.77 292.07 173.64 C 291.44 169.19 291.88 164.67 291.77 160.19 C 287.10 160.20 282.43 160.23 277.77 160.03 C 277.94 159.54 278.29 158.57 278.46 158.08 C 282.78 157.11 287.33 157.90 291.75 157.68 C 291.87 153.24 291.52 148.77 291.97 144.34 Z" />
<path fill="#d0d1d3" d=" M 161.02 148.76 C 163.93 148.13 166.90 148.00 169.75 148.98 C 169.83 160.64 169.76 172.31 169.80 183.98 C 166.87 184.02 163.93 184.01 161.00 184.02 C 161.01 172.26 160.96 160.51 161.02 148.76 Z" />
<path fill="#d0d1d3" d=" M 171.35 159.30 C 173.88 157.60 177.07 158.65 179.84 158.97 C 180.13 167.31 179.90 175.65 179.96 183.99 C 176.98 184.00 174.00 184.01 171.03 183.99 C 171.26 175.76 170.58 167.49 171.35 159.30 Z" />
<path fill="#d0d1d3" d=" M 181.63 168.82 C 184.30 168.86 187.14 168.30 189.70 169.26 C 190.43 174.13 189.82 179.10 190.00 184.01 C 187.06 184.01 184.13 184.02 181.20 183.98 C 181.25 178.92 180.92 173.85 181.63 168.82 Z" />
<path fill="#d0d1d3" d=" M 191.74 178.93 C 194.44 178.92 197.15 178.94 199.86 179.03 C 199.97 180.68 200.05 182.34 200.16 184.01 C 197.24 184.01 194.31 184.01 191.39 184.01 C 191.46 182.31 191.66 180.62 191.74 178.93 Z" />
<path fill="#d0d1d3" d=" M 525.53 251.75 C 528.10 254.07 530.83 256.30 532.90 259.12 C 531.40 262.51 527.92 264.63 525.35 267.23 C 525.36 265.51 525.11 263.81 525.14 262.09 C 515.07 262.22 505.00 261.95 494.94 262.13 C 494.75 264.92 494.75 267.73 494.32 270.50 C 493.11 272.43 491.16 273.73 489.44 275.18 C 489.51 269.94 489.10 264.68 489.59 259.46 C 490.02 256.96 492.89 256.68 494.94 256.74 C 504.95 256.76 514.95 256.74 524.95 256.79 C 525.18 255.11 525.28 253.42 525.53 251.75 Z" />
<path fill="#d0d1d3" d=" M 162.12 281.46 C 170.79 273.30 180.10 265.83 189.01 257.93 C 195.10 262.85 200.88 268.14 206.85 273.21 C 209.84 275.89 213.15 278.23 215.83 281.25 C 214.95 282.56 213.94 283.79 212.91 284.97 C 204.89 278.31 197.15 271.32 189.02 264.81 C 181.17 271.48 173.28 278.11 165.51 284.87 C 164.34 283.76 163.28 282.56 162.12 281.46 Z" />
<path fill="#d0d1d3" d=" M 323.40 261.13 C 324.71 259.99 326.17 256.69 328.10 258.86 C 335.57 265.10 342.90 271.50 350.36 277.75 C 358.35 271.09 366.14 264.20 374.18 257.60 C 375.14 258.72 376.12 259.83 376.98 261.04 C 376.49 262.40 375.15 263.19 374.17 264.16 C 366.11 270.85 358.39 277.95 350.27 284.57 C 341.35 276.71 332.14 269.18 323.40 261.13 Z" />
<path fill="#d0d1d3" d=" M 527.53 271.40 C 528.77 269.65 530.49 268.33 532.07 266.89 C 532.23 272.24 532.64 277.63 532.00 282.96 C 531.45 285.14 528.91 285.39 527.06 285.36 C 516.91 285.41 506.75 285.25 496.61 285.41 C 496.50 287.02 496.18 288.61 496.08 290.22 C 493.29 287.91 490.75 285.31 488.28 282.67 C 490.85 279.94 493.44 277.20 496.42 274.90 C 496.53 276.63 496.51 278.36 496.62 280.10 C 506.61 279.84 516.67 280.65 526.61 279.70 C 527.32 276.98 526.79 274.09 527.53 271.40 Z" />
<path fill="#d0d1d3" d=" M 171.62 332.09 C 174.53 332.00 177.43 331.92 180.34 331.85 C 183.07 337.65 186.24 343.24 188.84 349.09 C 186.49 354.86 182.85 360.05 180.83 365.98 C 177.77 366.03 174.72 366.03 171.67 365.93 C 175.21 360.68 178.05 354.94 180.46 349.11 C 178.19 343.16 174.97 337.52 171.62 332.09 Z" />
<path fill="#d0d1d3" d=" M 172.88 390.08 C 177.64 390.06 182.41 390.08 187.17 390.15 C 187.60 392.57 187.12 395.38 188.23 397.53 C 191.42 398.29 194.67 398.90 197.71 400.20 C 197.70 401.73 197.70 403.27 197.71 404.82 C 190.95 408.02 183.25 407.80 175.96 407.61 C 171.67 407.26 167.05 407.12 163.30 404.78 C 162.84 403.24 163.13 401.61 163.04 400.04 C 165.95 399.07 168.94 398.38 171.89 397.54 C 172.91 395.34 172.47 392.53 172.88 390.08 Z" />
<path fill="#ffffff" d=" M 175.68 392.92 C 178.58 392.91 181.48 392.94 184.38 393.03 C 184.41 394.47 184.44 395.91 184.48 397.37 C 181.49 397.38 178.51 397.38 175.53 397.37 C 175.58 395.89 175.63 394.40 175.68 392.92 Z" />
<path fill="#d0d1d3" d=" M 165.05 410.18 C 175.06 412.40 185.67 412.25 195.71 410.24 C 195.22 418.38 194.89 426.54 194.42 434.68 C 194.27 437.87 190.57 438.79 188.02 439.29 C 182.41 440.07 176.58 440.19 171.04 438.90 C 169.08 438.33 166.40 437.39 166.36 434.95 C 165.56 426.72 165.55 418.43 165.05 410.18 Z" />
</svg>
